<svg xmlns="http://www.w3.org/2000/svg" xmlns:xlink="http://www.w3.org/1999/xlink" width="1453.982" height="167.804" viewBox="0 0 1453.982 167.804">
  <defs>
    <clipPath id="clip-path">
      <rect width="1453.982" height="167.804" fill="none"/>
    </clipPath>
  </defs>
  <g id="Repetir_cuadrícula_1" data-name="Repetir cuadrícula 1" clip-path="url(#clip-path)">
    <g id="Grupo_9597" data-name="Grupo 9597" transform="translate(-306 1)">
      <g id="Grupo_9595" data-name="Grupo 9595" transform="translate(2836 1682)">
        <g id="Grupo_9575" data-name="Grupo 9575" transform="translate(-2530 -1683)">
          <g id="Grupo_9558" data-name="Grupo 9558" transform="translate(0 107.421)">
            <path id="Trazado_25279" data-name="Trazado 25279" d="M10.394,1049.531l3.572-6.131a3.413,3.413,0,0,0-1.227-4.653l-7.67-4.468a3.413,3.413,0,0,0-4.653,1.227L0,1036.22v11.194l5.741,3.344A3.413,3.413,0,0,0,10.394,1049.531Z" transform="translate(0 -1021.685)" fill="#8cdbd1"/>
            <rect id="Rectángulo_2426" data-name="Rectángulo 2426" width="13.901" height="15.682" rx="6.95" transform="matrix(0.503, -0.864, 0.864, 0.503, 11.425, 32.384)" fill="#8cdbd1"/>
            <rect id="Rectángulo_2427" data-name="Rectángulo 2427" width="13.901" height="15.682" rx="6.95" transform="matrix(0.503, -0.864, 0.864, 0.503, 27.719, 41.877)" fill="#8cdbd1"/>
            <path id="Trazado_25280" data-name="Trazado 25280" d="M0,1179.329v.559l.243-.417Z" transform="translate(0 -1148.354)" fill="#8cdbd1"/>
            <path id="Trazado_25281" data-name="Trazado 25281" d="M3.05,977.677l2.205,1.285,2.7,1.57,2.205,1.285,2.7,1.57,2.205,1.285,2.7,1.57,2.205,1.285,2.7,1.57,2.205,1.285,2.7,1.57,2.205,1.285,2.7,1.57,2.205,1.285,2.7,1.57,2.205,1.285,2.418,1.409a1.25,1.25,0,0,0,1.668-.55l14.581-25.029a1.25,1.25,0,0,0-.344-1.722l-2.418-1.409-2.205-1.285-2.7-1.57-2.205-1.285-2.7-1.57-2.205-1.285-2.7-1.57L38.556,961.8l-2.7-1.57-2.205-1.285-2.7-1.57-2.205-1.285-2.7-1.57-2.205-1.285-2.7-1.57-2.205-1.285-2.7-1.57-2.205-1.285-2.7-1.57-2.205-1.285-2.7-1.57-2.205-1.285-2.676-1.559A1.228,1.228,0,0,0,0,940.668v5.416l.219-.376a1.168,1.168,0,0,1,1.592-.42l.312.182.692-1.188,2.205,1.285-.692,1.188,2.7,1.57.692-1.188,2.205,1.285-.692,1.188,2.7,1.57.692-1.188,2.205,1.285-.692,1.188,2.7,1.57.692-1.188,2.205,1.285-.692,1.188,2.7,1.57.692-1.188,2.205,1.285-.692,1.188,2.7,1.57.692-1.188,2.205,1.285-.692,1.188,2.7,1.57.692-1.188,2.205,1.285-.692,1.188,2.7,1.57.692-1.188,2.205,1.285-.692,1.188,2.7,1.57.692-1.188,2.205,1.285-.692,1.188,2.7,1.57.692-1.188,2.205,1.285-.692,1.188,2.7,1.57.692-1.188,2.205,1.285-.692,1.188.054.031a1.168,1.168,0,0,1,.42,1.592L43.3,994.964a1.168,1.168,0,0,1-1.592.42l-.054-.031-.692,1.188-2.205-1.285.692-1.188-2.7-1.57-.692,1.188L33.854,992.4l.692-1.188-2.7-1.57-.692,1.188-2.205-1.285.692-1.188-2.7-1.57-.692,1.188-2.205-1.285.692-1.188-2.7-1.57-.692,1.188-2.205-1.285.692-1.188-2.7-1.57-.692,1.188-2.205-1.285.692-1.188-2.7-1.57-.692,1.188-2.205-1.285.692-1.188-2.7-1.57-.692,1.188-2.205-1.285.692-1.188-2.7-1.57L1.756,973.7,0,972.679V975.9l.355.207Z" transform="translate(0 -940.112)" fill="#8cdbd1"/>
          </g>
          <g id="Grupo_9560" data-name="Grupo 9560">
            <path id="Trazado_25282" data-name="Trazado 25282" d="M34.85,24.669A29.8,29.8,0,0,0,21.8,0H17.435A27.621,27.621,0,0,1,0,51.827V54.08a29.847,29.847,0,0,0,34.85-29.41Z" fill="#8cdbd1"/>
            <g id="Grupo_9559" data-name="Grupo 9559">
              <path id="Trazado_25283" data-name="Trazado 25283" d="M102.16,94.076a6.365,6.365,0,0,0,8.222,2.576,17.35,17.35,0,0,0-6.343-10.982A6.365,6.365,0,0,0,102.16,94.076Z" transform="translate(-88.188 -74.577)" fill="#8cdbd1"/>
              <path id="Trazado_25284" data-name="Trazado 25284" d="M5.017,63.412a6.364,6.364,0,0,0,6.342-5.835A17.437,17.437,0,0,0,0,57.12v3.84A6.349,6.349,0,0,0,5.017,63.412Z" transform="translate(0 -49.082)" fill="#8cdbd1"/>
              <path id="Trazado_25285" data-name="Trazado 25285" d="M5.017,154.087A6.365,6.365,0,1,0,0,143.808v7.829A6.352,6.352,0,0,0,5.017,154.087Z" transform="translate(0 -123.053)" fill="#8cdbd1"/>
              <path id="Trazado_25286" data-name="Trazado 25286" d="M110.381,206.468a6.364,6.364,0,0,0-6.343,10.982A17.351,17.351,0,0,0,110.381,206.468Z" transform="translate(-88.188 -179.205)" fill="#8cdbd1"/>
              <path id="Trazado_25287" data-name="Trazado 25287" d="M11.359,276.195A6.362,6.362,0,0,0,0,272.813v3.839a17.434,17.434,0,0,0,11.359-.457Z" transform="translate(0 -235.352)" fill="#8cdbd1"/>
              <path id="Trazado_25288" data-name="Trazado 25288" d="M30.935,24.669A25.927,25.927,0,0,0,12.98,0H0V4.051A6.364,6.364,0,0,1,11.383,7.965c0,.179-.009.355-.024.53a17.35,17.35,0,0,1,4.491,2.6c.146-.1.3-.2.452-.289a6.365,6.365,0,0,1,6.365,11.025c-.156.09-.314.17-.474.246a17.533,17.533,0,0,1,0,5.188c.16.075.318.156.474.246A6.365,6.365,0,0,1,16.3,38.534c-.156-.09-.306-.187-.452-.289a17.346,17.346,0,0,1-4.491,2.6c.015.175.024.352.024.53A6.364,6.364,0,0,1,0,45.288V50.1a25.932,25.932,0,0,0,30.935-25.43Z" fill="#8cdbd1"/>
              <path id="Trazado_25289" data-name="Trazado 25289" d="M12.285,100.235a17.344,17.344,0,0,0,2.758-1.6A7.326,7.326,0,0,1,22.31,86.052c.048-.525.075-1.056.075-1.593s-.027-1.068-.075-1.593A7.326,7.326,0,0,1,15.043,70.28a17.333,17.333,0,0,0-2.758-1.6A7.323,7.323,0,0,1,0,73.1v6.025A7.328,7.328,0,1,1,0,89.8v6.026a7.323,7.323,0,0,1,12.285,4.412Z" transform="translate(0 -59.79)" fill="#8cdbd1"/>
              <path id="Trazado_25290" data-name="Trazado 25290" d="M5.017,154.087A6.365,6.365,0,1,0,0,143.808v7.829A6.352,6.352,0,0,0,5.017,154.087Z" transform="translate(0 -123.053)" fill="#8cdbd1"/>
            </g>
          </g>
          <g id="Grupo_9562" data-name="Grupo 9562" transform="translate(61.288 72.832)">
            <path id="Trazado_25291" data-name="Trazado 25291" d="M534.781,636.907a29.833,29.833,0,1,0,29.833,29.833A29.833,29.833,0,0,0,534.781,636.907Zm0,57.447a27.614,27.614,0,1,1,27.614-27.614A27.614,27.614,0,0,1,534.781,694.354Z" transform="translate(-504.948 -636.907)" fill="#8cdbd1"/>
            <g id="Grupo_9561" data-name="Grupo 9561" transform="translate(3.916 3.916)">
              <path id="Trazado_25292" data-name="Trazado 25292" d="M798.75,770.86a6.365,6.365,0,0,0,8.221,2.576,17.351,17.351,0,0,0-6.343-10.982A6.365,6.365,0,0,0,798.75,770.86Z" transform="translate(-763.879 -750.113)" fill="#8cdbd1"/>
              <path id="Trazado_25293" data-name="Trazado 25293" d="M610.919,770.86a6.364,6.364,0,0,0-1.878-8.407,17.351,17.351,0,0,0-6.343,10.982A6.364,6.364,0,0,0,610.919,770.86Z" transform="translate(-593.956 -750.113)" fill="#8cdbd1"/>
              <path id="Trazado_25294" data-name="Trazado 25294" d="M692.706,740.2a6.364,6.364,0,0,0,6.342-5.835,17.431,17.431,0,0,0-12.683,0A6.365,6.365,0,0,0,692.706,740.2Z" transform="translate(-666.789 -724.618)" fill="#8cdbd1"/>
              <circle id="Elipse_617" data-name="Elipse 617" cx="6.365" cy="6.365" r="6.365" transform="matrix(0.856, -0.517, 0.517, 0.856, 17.177, 23.763)" fill="#8cdbd1"/>
              <path id="Trazado_25295" data-name="Trazado 25295" d="M806.971,883.253a6.363,6.363,0,0,0-6.343,10.982A17.35,17.35,0,0,0,806.971,883.253Z" transform="translate(-763.879 -854.742)" fill="#8cdbd1"/>
              <path id="Trazado_25296" data-name="Trazado 25296" d="M610.919,885.829a6.364,6.364,0,0,0-8.221-2.576,17.35,17.35,0,0,0,6.343,10.982A6.364,6.364,0,0,0,610.919,885.829Z" transform="translate(-593.956 -854.742)" fill="#8cdbd1"/>
              <path id="Trazado_25297" data-name="Trazado 25297" d="M692.706,947.145a6.364,6.364,0,0,0-6.342,5.835,17.435,17.435,0,0,0,12.683,0A6.364,6.364,0,0,0,692.706,947.145Z" transform="translate(-666.789 -910.889)" fill="#8cdbd1"/>
              <path id="Trazado_25298" data-name="Trazado 25298" d="M561.1,667.146a25.917,25.917,0,1,0,25.917,25.917A25.917,25.917,0,0,0,561.1,667.146ZM581.083,704.6a6.365,6.365,0,0,1-8.695,2.33c-.156-.09-.306-.187-.452-.288a17.35,17.35,0,0,1-4.491,2.6c.014.175.024.352.024.53a6.365,6.365,0,0,1-12.73,0c0-.179.009-.355.024-.53a17.352,17.352,0,0,1-4.491-2.6c-.145.1-.3.2-.451.288a6.365,6.365,0,1,1-6.365-11.025c.155-.09.314-.171.473-.246a17.539,17.539,0,0,1,0-5.188c-.16-.075-.318-.156-.473-.246A6.365,6.365,0,1,1,549.82,679.2c.156.09.306.187.451.289a17.349,17.349,0,0,1,4.491-2.6c-.014-.175-.024-.352-.024-.53a6.365,6.365,0,1,1,12.73,0c0,.179-.009.355-.024.53a17.347,17.347,0,0,1,4.491,2.6c.146-.1.3-.2.452-.289a6.365,6.365,0,1,1,6.365,11.025c-.156.09-.314.171-.474.246a17.517,17.517,0,0,1,0,5.188c.16.075.318.156.474.246A6.365,6.365,0,0,1,581.083,704.6Z" transform="translate(-535.187 -667.146)" fill="#8cdbd1"/>
              <path id="Trazado_25299" data-name="Trazado 25299" d="M626.693,765.93a7.327,7.327,0,0,1,9.176-3.093c.048-.525.075-1.056.075-1.593s-.028-1.068-.075-1.593a7.326,7.326,0,0,1-7.267-12.587,17.352,17.352,0,0,0-2.758-1.6,7.326,7.326,0,0,1-14.535,0,17.348,17.348,0,0,0-2.758,1.6,7.326,7.326,0,0,1-7.267,12.587c-.048.525-.075,1.055-.075,1.593s.027,1.068.075,1.593a7.326,7.326,0,0,1,7.267,12.587,17.356,17.356,0,0,0,2.758,1.6,7.326,7.326,0,0,1,14.535,0,17.36,17.36,0,0,0,2.758-1.6A7.327,7.327,0,0,1,626.693,765.93Zm-8.117,2.642a7.328,7.328,0,1,1,7.328-7.327A7.328,7.328,0,0,1,618.576,768.571Z" transform="translate(-592.659 -735.326)" fill="#8cdbd1"/>
              <path id="Trazado_25300" data-name="Trazado 25300" d="M692.547,830.872a6.365,6.365,0,1,1,6.365-6.365A6.365,6.365,0,0,1,692.547,830.872Z" transform="translate(-666.63 -798.59)" fill="#8cdbd1"/>
            </g>
          </g>
          <g id="Grupo_9565" data-name="Grupo 9565" transform="translate(0 60.367)">
            <path id="Trazado_25303" data-name="Trazado 25303" d="M.521,543l1.465,3.118a.855.855,0,0,0,.682.487l18.16,1.971a.856.856,0,0,0,.867-1.215l-7.328-15.6-7.328-15.6a.856.856,0,0,0-1.488-.108L0,524.44v3.239l5.423-8.384a.7.7,0,0,1,1.227.1l6.152,13.1,6.152,13.1a.7.7,0,0,1-.705,1.009L3.273,544.819a.722.722,0,0,1-.566-.412L0,538.642v4.6l.5-.234C.507,543.008.513,543,.521,543Z" transform="translate(0 -515.666)" fill="#8cdbd1"/>
            <path id="Trazado_25304" data-name="Trazado 25304" d="M3.682,593.034a.542.542,0,0,0,.418.31l11,1.414a.513.513,0,0,0,.511-.746l-4.593-9.779-4.593-9.779a.513.513,0,0,0-.9-.083L0,583.094v2.1l1.622,3.453Z" transform="translate(0 -566.569)" fill="#8cdbd1"/>
          </g>
          <g id="Grupo_9566" data-name="Grupo 9566" transform="translate(74.761)">
            <path id="Trazado_25305" data-name="Trazado 25305" d="M647.361,13.03l20.789,7.325a1.429,1.429,0,0,0,1.864-.739l3.991-11.328a1.429,1.429,0,0,0-.989-1.744L654.441,0h-4.093l-3.977,11.286A1.429,1.429,0,0,0,647.361,13.03Z" transform="translate(-641.475)" fill="#8cdbd1"/>
            <path id="Trazado_25306" data-name="Trazado 25306" d="M610.33,15.492l4.036,1.422-.538,1.525a1.158,1.158,0,0,0,.705,1.473L633,26.418a1.158,1.158,0,0,0,1.473-.705l.537-1.525,2.876,1.013a2.011,2.011,0,0,0,2.557-1.225l1.615-4.583.653.23-.014.039a.883.883,0,0,0,.537,1.122l1.165.41a.883.883,0,0,0,1.122-.537l.014-.039.508.179-.014.039a.883.883,0,0,0,.538,1.122l1.165.41a.882.882,0,0,0,1.122-.538l.014-.039.915.322.025.006-1.145,3.249a.856.856,0,0,0,.144.826l11.554,14.148a.856.856,0,0,0,1.47-.257L667.56,23.83l5.728-16.256a.856.856,0,0,0-.984-1.121l-17.871,3.781a.856.856,0,0,0-.63.553l-1.145,3.249-.023-.011-.915-.322.014-.039a.882.882,0,0,0-.537-1.122l-1.164-.41a.883.883,0,0,0-1.122.538l-.014.039-.508-.179.014-.039a.883.883,0,0,0-.537-1.122l-1.165-.41a.883.883,0,0,0-1.122.537l-.014.039-.653-.23,1.615-4.583A2.011,2.011,0,0,0,645.3,4.16l-6.437-2.268.6-1.691A14.8,14.8,0,0,0,644.2,2.948,14.845,14.845,0,0,0,659.054,0h-2.909A13.065,13.065,0,0,1,644.79,1.288,13.126,13.126,0,0,1,642.13,0H627.564l10.283,3.623a.378.378,0,0,0,.176.017l4.934,1.739a2.011,2.011,0,0,1,1.225,2.557L639.4,21.506a2.011,2.011,0,0,1-2.557,1.225l-24.152-8.51a2.011,2.011,0,0,1-1.225-2.557L615.576,0h-1.913l-4.557,12.934A2.011,2.011,0,0,0,610.33,15.492Zm40.049,9.167,2.157-6.122,2.157-6.122a.723.723,0,0,1,.522-.467l14.722-3.273a.7.7,0,0,1,.8.933L665.93,23.256,661.121,36.9a.7.7,0,0,1-1.21.224l-9.418-11.779A.722.722,0,0,1,650.379,24.658Z" transform="translate(-608.992)" fill="#8cdbd1"/>
            <path id="Trazado_25307" data-name="Trazado 25307" d="M960.5,90.421,949.7,92.93a.542.542,0,0,0-.384.35L947.7,97.851l-1.61,4.571a.542.542,0,0,0,.08.514l6.845,8.728a.513.513,0,0,0,.888-.173l3.59-10.19,3.59-10.19A.513.513,0,0,0,960.5,90.421Z" transform="translate(-902.414 -78.701)" fill="#8cdbd1"/>
          </g>
          <g id="Grupo_9569" data-name="Grupo 9569" transform="translate(25.209 25.269)">
            <rect id="Rectángulo_2428" data-name="Rectángulo 2428" width="15.682" height="13.901" rx="6.95" transform="matrix(0.54, -0.842, 0.842, 0.54, 10.918, 55.262)" fill="#8cdbd1"/>
            <rect id="Rectángulo_2429" data-name="Rectángulo 2429" width="15.682" height="13.901" rx="6.95" transform="matrix(0.54, -0.842, 0.842, 0.54, 21.096, 39.387)" fill="#8cdbd1"/>
            <rect id="Rectángulo_2430" data-name="Rectángulo 2430" width="15.682" height="13.901" rx="6.95" transform="translate(31.273 23.512) rotate(-57.337)" fill="#8cdbd1"/>
            <path id="Trazado_25313" data-name="Trazado 25313" d="M240.37,195.645,238.86,198l-1.377,2.149-1.683,2.626-1.377,2.149-1.683,2.626-1.377,2.148-1.683,2.626-1.377,2.149-1.683,2.626-1.378,2.149-1.683,2.626-1.377,2.148-1.683,2.626-1.377,2.148-1.683,2.626-1.377,2.149-1.683,2.626L213,238.346l-1.683,2.626-1.377,2.148-1.683,2.626-1.377,2.149L205.2,250.5a1.25,1.25,0,0,0,.478,1.69l24.385,15.633a1.25,1.25,0,0,0,1.735-.27l1.671-2.607,1.377-2.148,1.684-2.626,1.377-2.148,1.683-2.626,1.377-2.149,1.683-2.626,1.377-2.149,1.683-2.626,1.377-2.148,1.683-2.626,1.377-2.149,1.683-2.626,1.377-2.149,1.683-2.626,1.377-2.148,1.683-2.626,1.377-2.148,1.683-2.626,1.377-2.149,1.683-2.626,1.377-2.149,1.51-2.356a1.25,1.25,0,0,0-.478-1.69l-24.385-15.633A1.25,1.25,0,0,0,240.37,195.645ZM261.738,215.7l-1.157-.742-1.683,2.626,1.157.742-1.377,2.148-1.157-.742-1.683,2.626,1.157.742-1.377,2.149-1.157-.742-1.683,2.626,1.157.742-1.377,2.149-1.157-.742-1.683,2.626,1.157.742-1.377,2.148-1.157-.742-1.684,2.626,1.157.742-1.377,2.148-1.157-.742-1.683,2.626,1.157.742-1.377,2.149-1.157-.742-1.683,2.626,1.157.742-1.377,2.148-1.157-.742L237.471,251l1.157.742-1.378,2.148-1.157-.742-1.683,2.626,1.157.742-1.377,2.149-1.157-.742-1.683,2.626,1.157.742-1.377,2.149-1.157-.742-.195.3a1.168,1.168,0,0,1-1.608.352l-17.575-11.267a1.168,1.168,0,0,1-.352-1.608l.195-.3-1.157-.742,1.377-2.148,1.157.742L213.5,245.4l-1.157-.742,1.377-2.149,1.157.742,1.683-2.626-1.157-.742,1.377-2.149,1.157.742,1.683-2.626-1.157-.742,1.377-2.148,1.157.742,1.683-2.626-1.157-.742,1.377-2.148,1.157.742,1.683-2.626-1.157-.742,1.377-2.149,1.157.742,1.684-2.626-1.157-.742,1.377-2.148,1.157.742,1.683-2.626-1.157-.742,1.377-2.148,1.157.742,1.683-2.626-1.157-.742,1.377-2.149,1.157.742,1.683-2.626-1.157-.742,1.377-2.149,1.157.742,1.683-2.626-1.157-.742,1.377-2.148,1.157.742.034-.052a1.168,1.168,0,0,1,1.608-.352l17.575,11.267a1.168,1.168,0,0,1,.352,1.608l-.034.052,1.157.742Z" transform="translate(-205.038 -195.146)" fill="#8cdbd1"/>
          </g>
        </g>
      </g>
      <g id="Grupo_9596" data-name="Grupo 9596" transform="translate(1628.033 -1)">
        <g id="Grupo_9575-2" data-name="Grupo 9575" transform="translate(0)">
          <g id="Grupo_9558-2" data-name="Grupo 9558" transform="translate(78.118 112.166)">
            <path id="Trazado_25279-2" data-name="Trazado 25279" d="M3.715,1048.3l-3.291-5.649a3.145,3.145,0,0,1,1.131-4.288l7.067-4.117a3.145,3.145,0,0,1,4.287,1.131l.383.657v10.314L8,1049.427A3.145,3.145,0,0,1,3.715,1048.3Z" transform="translate(40.539 -1022.639)" fill="#8cdbd1"/>
            <rect id="Rectángulo_2426-2" data-name="Rectángulo 2426" width="12.809" height="14.449" rx="6.404" transform="translate(30.818 37.113) rotate(-120.223)" fill="#8cdbd1"/>
            <rect id="Rectángulo_2427-2" data-name="Rectángulo 2427" width="12.809" height="14.449" rx="6.404" transform="translate(15.805 45.859) rotate(-120.223)" fill="#8cdbd1"/>
            <path id="Trazado_25280-2" data-name="Trazado 25280" d="M.224,1179.329v.515L0,1179.46Z" transform="translate(53.607 -1150.788)" fill="#8cdbd1"/>
            <path id="Trazado_25281-2" data-name="Trazado 25281" d="M51.02,974.725l-2.032,1.184-2.483,1.447-2.032,1.184-2.483,1.447-2.032,1.184-2.483,1.447L35.443,983.8l-2.483,1.447-2.032,1.184-2.483,1.447-2.032,1.184-2.483,1.447L21.9,991.692l-2.483,1.447-2.032,1.184-2.228,1.3a1.152,1.152,0,0,1-1.537-.507L.182,972.052A1.152,1.152,0,0,1,.5,970.465l2.228-1.3,2.032-1.184,2.483-1.447,2.032-1.184,2.483-1.447,2.032-1.184,2.483-1.447,2.032-1.184,2.483-1.447,2.032-1.184,2.483-1.447,2.032-1.184,2.483-1.447,2.032-1.184,2.483-1.447,2.032-1.184,2.483-1.447,2.032-1.184,2.483-1.447,2.032-1.184,2.483-1.447,2.032-1.184,2.466-1.436a1.131,1.131,0,0,1,1.453.382v4.99l-.2-.347a1.076,1.076,0,0,0-1.467-.387l-.287.167-.638-1.094-2.032,1.184.638,1.094-2.483,1.447-.638-1.094-2.032,1.184.638,1.094-2.483,1.447-.638-1.094L40.175,950.4l.638,1.094-2.483,1.447-.638-1.095-2.032,1.184.638,1.094-2.483,1.447-.638-1.094-2.032,1.184.638,1.095L29.3,958.2l-.638-1.095-2.032,1.184.638,1.094-2.483,1.447-.638-1.094-2.032,1.184.638,1.094-2.483,1.447-.638-1.095L17.6,963.551l.638,1.094-2.483,1.447L15.114,965l-2.032,1.184.638,1.094-2.483,1.447-.638-1.094-2.032,1.184.638,1.095-2.483,1.447-.638-1.094-2.032,1.184.638,1.094-.05.029a1.076,1.076,0,0,0-.387,1.467l9.683,16.621a1.076,1.076,0,0,0,1.467.387l.05-.029.638,1.094,2.032-1.184-.638-1.094,2.483-1.447.638,1.094,2.032-1.184L22,987.2l2.483-1.447.638,1.095,2.032-1.184-.638-1.094L29,983.12l.638,1.094,2.032-1.184-.638-1.095,2.483-1.447.638,1.094,2.032-1.184-.638-1.095,2.483-1.447.638,1.095L40.7,977.77l-.638-1.094,2.483-1.447.638,1.095,2.032-1.184-.638-1.095L47.06,972.6l.638,1.095,2.032-1.184-.638-1.094,2.483-1.447.638,1.095,1.618-.943v2.968l-.327.191Z" transform="translate(0 -940.112)" fill="#8cdbd1"/>
          </g>
          <g id="Grupo_9560-2" data-name="Grupo 9560" transform="translate(99.837)">
            <path id="Trazado_25282-2" data-name="Trazado 25282" d="M0,22.731A27.459,27.459,0,0,1,12.028,0h4.018A25.45,25.45,0,0,0,32.111,47.754V49.83A27.5,27.5,0,0,1,0,22.731Z" fill="#8cdbd1"/>
            <g id="Grupo_9559-2" data-name="Grupo 9559" transform="translate(3.608)">
              <path id="Trazado_25283-2" data-name="Trazado 25283" d="M108.882,93.416a5.864,5.864,0,0,1-7.575,2.373,15.987,15.987,0,0,1,5.845-10.119A5.864,5.864,0,0,1,108.882,93.416Z" transform="translate(-93.251 -75.449)" fill="#8cdbd1"/>
              <path id="Trazado_25284-2" data-name="Trazado 25284" d="M5.843,62.86A5.864,5.864,0,0,1,0,57.484a16.067,16.067,0,0,1,10.466-.421V60.6A5.85,5.85,0,0,1,5.843,62.86Z" transform="translate(18.037 -49.656)" fill="#8cdbd1"/>
              <path id="Trazado_25285-2" data-name="Trazado 25285" d="M5.865,153.087a5.865,5.865,0,1,1,4.623-9.472v7.213A5.853,5.853,0,0,1,5.865,153.087Z" transform="translate(18.015 -124.491)" fill="#8cdbd1"/>
              <path id="Trazado_25286-2" data-name="Trazado 25286" d="M101.306,206.42a5.864,5.864,0,0,1,5.845,10.119A15.987,15.987,0,0,1,101.306,206.42Z" transform="translate(-93.251 -181.3)" fill="#8cdbd1"/>
              <path id="Trazado_25287-2" data-name="Trazado 25287" d="M0,275.736a5.862,5.862,0,0,1,10.466-3.116v3.538A16.064,16.064,0,0,1,0,275.736Z" transform="translate(18.037 -238.103)" fill="#8cdbd1"/>
              <path id="Trazado_25288-2" data-name="Trazado 25288" d="M0,22.731A23.89,23.89,0,0,1,16.544,0H28.5V3.732A5.864,5.864,0,0,0,18.015,7.339c0,.165.009.327.022.489A15.987,15.987,0,0,0,13.9,10.221c-.134-.093-.272-.183-.416-.266A5.865,5.865,0,0,0,7.619,20.114c.143.083.289.157.436.226a16.155,16.155,0,0,0,0,4.78c-.147.069-.293.144-.436.226a5.865,5.865,0,0,0,5.865,10.159c.144-.083.282-.173.416-.266a15.983,15.983,0,0,0,4.138,2.394c-.013.161-.022.324-.022.489A5.864,5.864,0,0,0,28.5,41.729v4.433A23.894,23.894,0,0,1,0,22.731Z" fill="#8cdbd1"/>
              <path id="Trazado_25289-2" data-name="Trazado 25289" d="M9.307,97.756a15.981,15.981,0,0,1-2.541-1.471,6.75,6.75,0,0,0-6.7-11.6C.025,84.2,0,83.715,0,83.22s.025-.984.069-1.468a6.75,6.75,0,0,0,6.7-11.6,15.971,15.971,0,0,1,2.541-1.471A6.748,6.748,0,0,0,20.627,72.75V78.3a6.752,6.752,0,1,0,0,9.836V93.69A6.748,6.748,0,0,0,9.307,97.756Z" transform="translate(7.877 -60.489)" fill="#8cdbd1"/>
              <path id="Trazado_25290-2" data-name="Trazado 25290" d="M5.865,153.087a5.865,5.865,0,1,1,4.623-9.472v7.213A5.853,5.853,0,0,1,5.865,153.087Z" transform="translate(18.015 -124.491)" fill="#8cdbd1"/>
            </g>
          </g>
          <g id="Grupo_9562-2" data-name="Grupo 9562" transform="translate(16.726 75.99)">
            <path id="Trazado_25291-2" data-name="Trazado 25291" d="M532.436,636.907A27.488,27.488,0,1,1,504.948,664.4,27.488,27.488,0,0,1,532.436,636.907Zm0,52.932A25.444,25.444,0,1,0,506.993,664.4,25.444,25.444,0,0,0,532.436,689.839Z" transform="translate(-504.948 -636.907)" fill="#8cdbd1"/>
            <g id="Grupo_9561-2" data-name="Grupo 9561" transform="translate(3.608 3.608)">
              <path id="Trazado_25292-2" data-name="Trazado 25292" d="M805.472,770.2a5.864,5.864,0,0,1-7.575,2.373,15.987,15.987,0,0,1,5.845-10.119A5.864,5.864,0,0,1,805.472,770.2Z" transform="translate(-789.842 -751.083)" fill="#8cdbd1"/>
              <path id="Trazado_25293-2" data-name="Trazado 25293" d="M603.484,770.2a5.864,5.864,0,0,1,1.731-7.746,15.987,15.987,0,0,1,5.845,10.119A5.864,5.864,0,0,1,603.484,770.2Z" transform="translate(-571.354 -751.083)" fill="#8cdbd1"/>
              <path id="Trazado_25294-2" data-name="Trazado 25294" d="M692.208,739.644a5.864,5.864,0,0,1-5.843-5.376,16.062,16.062,0,0,1,11.686,0A5.864,5.864,0,0,1,692.208,739.644Z" transform="translate(-668.328 -725.29)" fill="#8cdbd1"/>
              <ellipse id="Elipse_617-2" data-name="Elipse 617" cx="5.865" cy="5.865" rx="5.865" ry="5.865" transform="matrix(-0.856, -0.517, 0.517, -0.856, 25.865, 31.934)" fill="#8cdbd1"/>
              <path id="Trazado_25295-2" data-name="Trazado 25295" d="M797.9,883.205a5.863,5.863,0,0,1,5.845,10.119A15.986,15.986,0,0,1,797.9,883.205Z" transform="translate(-789.842 -856.935)" fill="#8cdbd1"/>
              <path id="Trazado_25296-2" data-name="Trazado 25296" d="M603.484,885.579a5.864,5.864,0,0,1,7.575-2.373,15.986,15.986,0,0,1-5.845,10.119A5.864,5.864,0,0,1,603.484,885.579Z" transform="translate(-571.354 -856.935)" fill="#8cdbd1"/>
              <path id="Trazado_25297-2" data-name="Trazado 25297" d="M692.208,947.145a5.864,5.864,0,0,1,5.843,5.376,16.064,16.064,0,0,1-11.686,0A5.864,5.864,0,0,1,692.208,947.145Z" transform="translate(-668.328 -913.738)" fill="#8cdbd1"/>
              <path id="Trazado_25298-2" data-name="Trazado 25298" d="M559.067,667.146a23.88,23.88,0,1,1-23.88,23.881A23.88,23.88,0,0,1,559.067,667.146Zm-18.409,34.509a5.865,5.865,0,0,0,8.012,2.147c.144-.083.282-.173.416-.266a15.986,15.986,0,0,0,4.138,2.394c-.013.161-.022.324-.022.489a5.865,5.865,0,0,0,11.73,0c0-.165-.009-.327-.022-.489a15.99,15.99,0,0,0,4.138-2.394c.134.093.272.183.416.266a5.865,5.865,0,1,0,5.865-10.158c-.143-.083-.289-.157-.436-.226a16.164,16.164,0,0,0,0-4.78c.147-.069.293-.144.436-.227a5.865,5.865,0,1,0-5.865-10.158c-.144.083-.282.173-.416.266a15.986,15.986,0,0,0-4.138-2.394c.013-.161.022-.324.022-.489a5.865,5.865,0,1,0-11.73,0c0,.165.009.327.022.489a15.982,15.982,0,0,0-4.138,2.394c-.134-.093-.272-.183-.416-.266a5.865,5.865,0,1,0-5.865,10.158c.143.083.289.157.436.227a16.148,16.148,0,0,0,0,4.78c-.147.069-.293.144-.436.226A5.865,5.865,0,0,0,540.659,701.655Z" transform="translate(-535.187 -667.146)" fill="#8cdbd1"/>
              <path id="Trazado_25299-2" data-name="Trazado 25299" d="M609.733,764.322a6.751,6.751,0,0,0-8.455-2.85c-.044-.484-.07-.973-.07-1.467s.025-.984.07-1.468a6.75,6.75,0,0,0,6.7-11.6,15.99,15.99,0,0,1,2.541-1.471,6.75,6.75,0,0,0,13.393,0,15.99,15.99,0,0,1,2.541,1.471,6.75,6.75,0,0,0,6.7,11.6c.044.484.069.973.069,1.468s-.025.984-.069,1.467a6.75,6.75,0,0,0-6.7,11.6,15.989,15.989,0,0,1-2.541,1.471,6.75,6.75,0,0,0-13.393,0,15.989,15.989,0,0,1-2.541-1.471A6.751,6.751,0,0,0,609.733,764.322Zm7.479,2.434A6.752,6.752,0,1,0,610.46,760,6.752,6.752,0,0,0,617.211,766.756Z" transform="translate(-593.331 -736.123)" fill="#8cdbd1"/>
              <path id="Trazado_25300-2" data-name="Trazado 25300" d="M692.047,829.872a5.865,5.865,0,1,0-5.865-5.865A5.865,5.865,0,0,0,692.047,829.872Z" transform="translate(-668.167 -800.127)" fill="#8cdbd1"/>
            </g>
          </g>
          <g id="Grupo_9565-2" data-name="Grupo 9565" transform="translate(111.883 61.525)">
            <path id="Trazado_25303-2" data-name="Trazado 25303" d="M19.585,540.851l-1.35,2.873a.788.788,0,0,1-.629.449L.875,545.988a.789.789,0,0,1-.8-1.119l6.752-14.375,6.752-14.375a.788.788,0,0,1,1.371-.1l5.114,7.731v2.985l-5-7.725a.647.647,0,0,0-1.13.093L8.27,531.171,2.6,543.239a.647.647,0,0,0,.65.93l13.8-1.641a.665.665,0,0,0,.521-.38l2.5-5.312v4.243l-.46-.216Z" transform="translate(0 -515.666)" fill="#8cdbd1"/>
            <path id="Trazado_25304-2" data-name="Trazado 25304" d="M11.043,591.549a.5.5,0,0,1-.385.286l-10.137,1.3a.473.473,0,0,1-.471-.688l4.232-9.01,4.232-9.01a.473.473,0,0,1,.83-.076l5.091,8.037v1.935l-1.495,3.182Z" transform="translate(5.63 -567.164)" fill="#8cdbd1"/>
          </g>
          <g id="Grupo_9566-2" data-name="Grupo 9566" transform="translate(0)">
            <path id="Trazado_25305-2" data-name="Trazado 25305" d="M670.917,12.006l-19.155,6.749a1.316,1.316,0,0,1-1.717-.681L646.367,7.637a1.317,1.317,0,0,1,.912-1.607L664.393,0h3.771l3.664,10.4A1.316,1.316,0,0,1,670.917,12.006Z" transform="translate(-617.052)" fill="#8cdbd1"/>
            <path id="Trazado_25306-2" data-name="Trazado 25306" d="M667.048,14.274l-3.719,1.31.5,1.406a1.067,1.067,0,0,1-.65,1.357L646.16,24.342a1.067,1.067,0,0,1-1.357-.65l-.5-1.406-2.65.934a1.853,1.853,0,0,1-2.356-1.129l-1.488-4.223-.6.212.013.036a.813.813,0,0,1-.5,1.034l-1.073.378a.813.813,0,0,1-1.034-.5L634.609,19l-.468.165.013.036a.813.813,0,0,1-.5,1.034l-1.073.378a.813.813,0,0,1-1.034-.5l-.013-.036-.843.3-.023.006,1.055,2.994a.789.789,0,0,1-.133.761L620.948,37.173a.788.788,0,0,1-1.354-.237l-5.278-14.979L609.038,6.978a.788.788,0,0,1,.907-1.033l16.466,3.483a.788.788,0,0,1,.58.509l1.055,2.994.022-.01.843-.3-.012-.036a.813.813,0,0,1,.5-1.034l1.073-.378a.813.813,0,0,1,1.034.5l.012.036.468-.165-.012-.036a.813.813,0,0,1,.5-1.034l1.073-.378a.813.813,0,0,1,1.034.5l.013.036.6-.212L633.7,6.19a1.853,1.853,0,0,1,1.129-2.356l5.931-2.09L640.209.186a13.641,13.641,0,0,1-4.373,2.531A13.678,13.678,0,0,1,622.154,0h2.681A12.038,12.038,0,0,0,635.3,1.187,12.094,12.094,0,0,0,637.747,0h13.421l-9.475,3.338a.348.348,0,0,1-.162.016l-4.547,1.6a1.853,1.853,0,0,0-1.129,2.356l4.406,12.5a1.853,1.853,0,0,0,2.356,1.129L664.873,13.1A1.853,1.853,0,0,0,666,10.747L662.215,0h1.763l4.2,11.918A1.853,1.853,0,0,1,667.048,14.274Zm-36.9,8.446-1.988-5.641-1.987-5.641a.666.666,0,0,0-.481-.43L612.126,7.993a.647.647,0,0,0-.74.86l4.431,12.575L620.248,34a.647.647,0,0,0,1.115.206l8.678-10.853A.665.665,0,0,0,630.147,22.72Z" transform="translate(-608.992)" fill="#8cdbd1"/>
            <path id="Trazado_25307-2" data-name="Trazado 25307" d="M946.628,90.42l9.955,2.312a.5.5,0,0,1,.354.323l1.484,4.212,1.484,4.212a.5.5,0,0,1-.074.473l-6.307,8.042a.473.473,0,0,1-.819-.159l-3.308-9.389-3.308-9.389A.473.473,0,0,1,946.628,90.42Z" transform="translate(-940.861 -79.621)" fill="#8cdbd1"/>
          </g>
          <g id="Grupo_9569-2" data-name="Grupo 9569" transform="translate(50.269 23.283)">
            <rect id="Rectángulo_2428-2" data-name="Rectángulo 2428" width="14.449" height="12.809" rx="6.404" transform="matrix(-0.54, -0.842, 0.842, -0.54, 36.373, 57.832)" fill="#8cdbd1"/>
            <rect id="Rectángulo_2429-2" data-name="Rectángulo 2429" width="14.449" height="12.809" rx="6.404" transform="matrix(-0.54, -0.842, 0.842, -0.54, 26.996, 43.204)" fill="#8cdbd1"/>
            <rect id="Rectángulo_2430-2" data-name="Rectángulo 2430" width="14.449" height="12.809" rx="6.404" transform="translate(17.618 28.577) rotate(-122.663)" fill="#8cdbd1"/>
            <path id="Trazado_25313-2" data-name="Trazado 25313" d="M229.7,195.606l1.392,2.171,1.269,1.98,1.551,2.42,1.269,1.98,1.551,2.42,1.269,1.98,1.551,2.42,1.269,1.98,1.551,2.42,1.269,1.98,1.551,2.42,1.269,1.98,1.551,2.42,1.269,1.98,1.551,2.42,1.269,1.98,1.551,2.419,1.269,1.98,1.551,2.42,1.269,1.98,1.551,2.42,1.269,1.98,1.54,2.4a1.152,1.152,0,0,1-.441,1.557l-22.469,14.4a1.152,1.152,0,0,1-1.6-.249l-1.54-2.4-1.269-1.98-1.551-2.42-1.269-1.98-1.551-2.42-1.269-1.98-1.551-2.42-1.269-1.98-1.551-2.42-1.269-1.98-1.551-2.42-1.269-1.98-1.551-2.42-1.269-1.98-1.551-2.42-1.269-1.98-1.551-2.42-1.269-1.98-1.551-2.42-1.269-1.98-1.551-2.419-1.269-1.98-1.392-2.171a1.152,1.152,0,0,1,.441-1.557l22.469-14.4A1.152,1.152,0,0,1,229.7,195.606ZM210.01,214.084l1.066-.684,1.551,2.42-1.066.684,1.269,1.98,1.066-.684,1.551,2.42-1.066.684,1.269,1.98,1.066-.684,1.551,2.42-1.066.684,1.269,1.98,1.066-.684,1.551,2.42-1.066.684,1.269,1.98,1.066-.684,1.551,2.42-1.066.684,1.269,1.98,1.066-.684,1.551,2.419-1.066.684,1.269,1.98L228,239.8l1.551,2.42-1.066.684,1.269,1.98,1.066-.684,1.551,2.42-1.066.684,1.269,1.98,1.066-.684,1.551,2.42-1.066.684,1.269,1.98,1.066-.684,1.551,2.42-1.066.684,1.269,1.98,1.066-.684.179.28a1.076,1.076,0,0,0,1.482.324l16.194-10.382a1.076,1.076,0,0,0,.324-1.482l-.179-.28,1.066-.684-1.269-1.98-1.066.684-1.551-2.42,1.066-.684-1.269-1.98-1.066.684-1.551-2.42,1.066-.684-1.269-1.98-1.066.684-1.551-2.42,1.066-.684-1.269-1.98-1.066.684L246,228.257l1.066-.684-1.269-1.98-1.066.684-1.551-2.42,1.066-.684-1.269-1.98-1.066.684-1.551-2.42,1.066-.684-1.269-1.98-1.066.684-1.551-2.42,1.066-.684-1.269-1.98-1.066.684-1.551-2.419,1.066-.684L234.514,208l-1.066.684-1.551-2.42,1.066-.684-1.269-1.98-1.066.684-1.551-2.42,1.066-.684-1.269-1.98-1.066.684-.031-.048a1.076,1.076,0,0,0-1.482-.324L210.1,209.891a1.076,1.076,0,0,0-.324,1.482l.031.048-1.066.684Z" transform="translate(-205.038 -195.146)" fill="#8cdbd1"/>
          </g>
        </g>
      </g>
    </g>
  </g>
</svg>
