<svg xmlns="http://www.w3.org/2000/svg" width="431.868" height="329.494" viewBox="0 0 431.868 329.494">
  <g id="Grupo_9601" data-name="Grupo 9601" transform="translate(-1096.019 -17.561)">
    <g id="Grupo_8431" data-name="Grupo 8431" transform="translate(30 14.501)">
      <g id="Grupo_8409" data-name="Grupo 8409" transform="translate(1342.315 3.06)">
        <g id="Grupo_8402" data-name="Grupo 8402" transform="translate(66.313 39.905)">
          <rect id="Rectángulo_2302" data-name="Rectángulo 2302" width="4.896" height="236.527" fill="#fff"/>
        </g>
        <g id="Grupo_8403" data-name="Grupo 8403" transform="translate(69.21 39.904)">
          <path id="Trazado_25190" data-name="Trazado 25190" d="M374.072,376.989l2.063-.009.117-236.526-2.061.009Z" transform="translate(-374.072 -140.454)" fill="#ccc"/>
        </g>
        <g id="Grupo_8404" data-name="Grupo 8404" transform="translate(64.8 85.052)">
          <path id="Trazado_25191" data-name="Trazado 25191" d="M370.694,327.1l7.733,0-.485-147.134-7.73,0Z" transform="translate(-370.212 -179.965)" fill="#fff"/>
        </g>
        <g id="Grupo_8405" data-name="Grupo 8405" transform="translate(65.282 85.055)">
          <path id="Trazado_25192" data-name="Trazado 25192" d="M370.634,327.1l7.733,0-.485-147.134Z" transform="translate(-370.634 -179.967)" fill="#ccc"/>
        </g>
        <g id="Grupo_8408" data-name="Grupo 8408" transform="translate(0 0)">
          <rect id="Rectángulo_2303" data-name="Rectángulo 2303" width="10.63" height="21.261" transform="translate(26.217 27.493) rotate(-21.799)" fill="#736357"/>
          <path id="Trazado_25193" data-name="Trazado 25193" d="M354.688,155.9l42.138-16.869a11.175,11.175,0,0,0,6.221-14.525l-4.788-11.957a11.172,11.172,0,0,0-14.525-6.216L341.6,123.207Z" transform="translate(-309.496 -105.533)" fill="#fff"/>
          <path id="Trazado_25194" data-name="Trazado 25194" d="M353.053,155.9l42.138-16.869a11.175,11.175,0,0,0,6.221-14.525l-4.788-11.957a11.172,11.172,0,0,0-14.525-6.216Z" transform="translate(-307.861 -105.533)" fill="#f8f8f8"/>
          <rect id="Rectángulo_2304" data-name="Rectángulo 2304" width="30.293" height="10.037" transform="matrix(0.928, -0.372, 0.372, 0.928, 58.028, 29.82)" fill="#ccc"/>
          <g id="Grupo_8406" data-name="Grupo 8406" transform="translate(0 17.085)">
            <path id="Trazado_25195" data-name="Trazado 25195" d="M333.189,172.207,352.4,146.534l-.809-.6-19.21,25.675Z" transform="translate(-310.81 -116.853)" fill="#83cdca"/>
            <path id="Trazado_25196" data-name="Trazado 25196" d="M334.13,172.752l-8.675-21.666-2.408-6.021L314.369,123.4l30.849,2,3.724,9.3,2.412,6.02,3.628,9.061Z" transform="translate(-313.38 -120.069)" fill="#74c3b8"/>
            <path id="Trazado_25197" data-name="Trazado 25197" d="M331.663,172.5l11.088-47.355,3.724,9.3,2.412,6.02,3.628,9.061Z" transform="translate(-310.913 -119.819)" fill="#83cdca"/>
            <rect id="Rectángulo_2305" data-name="Rectángulo 2305" width="1.005" height="32.066" transform="translate(0 0.991) rotate(-80.447)" fill="#98e6dc"/>
          </g>
          <g id="Grupo_8407" data-name="Grupo 8407" transform="translate(39.084 18.189)">
            <path id="Trazado_25198" data-name="Trazado 25198" d="M361.809,141.955a.862.862,0,0,0,1.119.48h0a.862.862,0,0,0,.483-1.122l-7.737-19.321a.862.862,0,0,0-1.121-.48h0a.863.863,0,0,0-.48,1.12Z" transform="translate(-346.808 -121.451)" fill="#9f9f9f"/>
            <path id="Trazado_25199" data-name="Trazado 25199" d="M359.707,142.8a.863.863,0,0,0,1.122.479h0a.857.857,0,0,0,.48-1.119l-7.735-19.324a.865.865,0,0,0-1.121-.479h0a.862.862,0,0,0-.481,1.121Z" transform="translate(-347.108 -121.331)" fill="#9f9f9f"/>
            <path id="Trazado_25200" data-name="Trazado 25200" d="M357.607,143.637a.864.864,0,0,0,1.121.48h0a.857.857,0,0,0,.478-1.121l-7.734-19.323a.86.86,0,0,0-1.12-.476h0a.853.853,0,0,0-.478,1.118Z" transform="translate(-347.407 -121.211)" fill="#9f9f9f"/>
            <path id="Trazado_25201" data-name="Trazado 25201" d="M355.5,144.479a.864.864,0,0,0,1.122.48h0a.862.862,0,0,0,.481-1.122l-7.736-19.319a.865.865,0,0,0-1.121-.482h0a.864.864,0,0,0-.481,1.121Z" transform="translate(-347.707 -121.09)" fill="#9f9f9f"/>
          </g>
        </g>
        <path id="Trazado_25202" data-name="Trazado 25202" d="M367.279,144.672l14.008-5.621-4.353,13.033h-4.894Z" transform="translate(-305.831 -100.75)" fill="#ccc"/>
        <path id="Trazado_25203" data-name="Trazado 25203" d="M367.279,144.672l14.008-5.621L370,148.888Z" transform="translate(-305.831 -100.75)" fill="#9f9f9f"/>
      </g>
      <g id="Grupo_8417" data-name="Grupo 8417" transform="translate(1226.744 49.599)">
        <g id="Grupo_8410" data-name="Grupo 8410" transform="translate(14.29 24.721)">
          <rect id="Rectángulo_2306" data-name="Rectángulo 2306" width="3.035" height="149.759" fill="#fff"/>
        </g>
        <g id="Grupo_8411" data-name="Grupo 8411" transform="translate(14.194 24.72)">
          <path id="Trazado_25204" data-name="Trazado 25204" d="M219.8,243.153H218.7l.183-149.758h1.105Z" transform="translate(-218.698 -93.394)" fill="#ccc"/>
        </g>
        <g id="Grupo_8412" data-name="Grupo 8412" transform="translate(13.261 97.492)">
          <rect id="Rectángulo_2307" data-name="Rectángulo 2307" width="5.092" height="149.759" fill="#fff"/>
        </g>
        <g id="Grupo_8413" data-name="Grupo 8413" transform="translate(13.18 97.49)">
          <path id="Trazado_25205" data-name="Trazado 25205" d="M222.546,332.494l-5.093,0,.162-149.759Z" transform="translate(-217.453 -182.731)" fill="#ccc"/>
        </g>
        <g id="Grupo_8416" data-name="Grupo 8416" transform="translate(0 0)">
          <rect id="Rectángulo_2308" data-name="Rectángulo 2308" width="13.171" height="6.585" transform="translate(31.203 26.815) rotate(-68.179)" fill="#736357"/>
          <path id="Trazado_25206" data-name="Trazado 25206" d="M231.728,94.252,205.621,83.8a6.926,6.926,0,0,1-3.852-9l2.966-7.406a6.921,6.921,0,0,1,9-3.852L239.84,74Z" transform="translate(-201.273 -63.046)" fill="#fff"/>
          <path id="Trazado_25207" data-name="Trazado 25207" d="M231.728,94.252,205.621,83.8a6.926,6.926,0,0,1-3.852-9l2.966-7.406a6.921,6.921,0,0,1,9-3.852Z" transform="translate(-201.273 -63.046)" fill="#f8f8f8"/>
          <rect id="Rectángulo_2309" data-name="Rectángulo 2309" width="6.217" height="18.768" transform="matrix(0.372, -0.928, 0.928, 0.372, 2.768, 17.27)" fill="#ccc"/>
          <g id="Grupo_8414" data-name="Grupo 8414" transform="translate(32.68 10.584)">
            <rect id="Rectángulo_2310" data-name="Rectángulo 2310" width="0.623" height="19.866" transform="translate(0.006 18.388) rotate(-36.807)" fill="#74c3b8"/>
            <path id="Trazado_25208" data-name="Trazado 25208" d="M254.31,109.149l5.374-13.424L261.178,92l5.374-13.425L247.441,79.81l-2.305,5.761-1.493,3.73-2.25,5.613Z" transform="translate(-241.393 -76.509)" fill="#74c3b8"/>
            <path id="Trazado_25209" data-name="Trazado 25209" d="M254.31,109.431l-6.869-29.339-2.305,5.761-1.493,3.73-2.25,5.613Z" transform="translate(-241.393 -76.791)" fill="#74c3b8"/>
            <rect id="Rectángulo_2311" data-name="Rectángulo 2311" width="19.867" height="0.623" transform="translate(6.08 3.297) rotate(-9.552)" fill="#74c3b8"/>
          </g>
          <g id="Grupo_8415" data-name="Grupo 8415" transform="translate(23.915 11.268)">
            <path id="Trazado_25210" data-name="Trazado 25210" d="M231.662,89.582a.532.532,0,0,1-.693.3h0a.533.533,0,0,1-.3-.695l4.792-11.97a.534.534,0,0,1,.694-.3h0a.534.534,0,0,1,.3.693Z" transform="translate(-230.632 -76.88)" fill="#9f9f9f"/>
            <path id="Trazado_25211" data-name="Trazado 25211" d="M233.489,90.315a.533.533,0,0,1-.694.3h0a.532.532,0,0,1-.3-.693l4.792-11.972a.537.537,0,0,1,.7-.3h0a.532.532,0,0,1,.3.695Z" transform="translate(-230.971 -77.015)" fill="#9f9f9f"/>
            <path id="Trazado_25212" data-name="Trazado 25212" d="M235.317,91.045a.536.536,0,0,1-.7.3h0a.531.531,0,0,1-.295-.694l4.79-11.971a.536.536,0,0,1,.694-.3h0a.533.533,0,0,1,.3.693Z" transform="translate(-231.31 -77.151)" fill="#9f9f9f"/>
            <path id="Trazado_25213" data-name="Trazado 25213" d="M237.143,91.776a.536.536,0,0,1-.695.3h0a.529.529,0,0,1-.3-.694l4.789-11.971a.536.536,0,0,1,.694-.3h0a.533.533,0,0,1,.3.694Z" transform="translate(-231.648 -77.286)" fill="#9f9f9f"/>
          </g>
        </g>
        <path id="Trazado_25214" data-name="Trazado 25214" d="M216.734,92.653l6.818,2.747-2.036,4.459h-3.038Z" transform="translate(-204.14 -68.536)" fill="#ccc"/>
        <path id="Trazado_25215" data-name="Trazado 25215" d="M216.734,92.653l6.818,2.747-1.131,2.488Z" transform="translate(-204.14 -68.536)" fill="#9f9f9f"/>
      </g>
      <g id="Grupo_8401" data-name="Grupo 8401" transform="translate(1226.494 61.817)">
        <g id="Grupo_8346" data-name="Grupo 8346" transform="translate(178.621 111.572)">
          <rect id="Rectángulo_2295" data-name="Rectángulo 2295" width="13.544" height="15.187" transform="translate(0 4.993)" fill="#217eb3"/>
          <g id="Grupo_8345" data-name="Grupo 8345" transform="translate(13.509)">
            <path id="Trazado_25138" data-name="Trazado 25138" d="M265.594,232.673v25.059l-13.156-4.9V237.664Z" transform="translate(-252.439 -232.673)" fill="#00455b"/>
            <g id="Grupo_8344" data-name="Grupo 8344" transform="translate(0 8.898)">
              <path id="Trazado_25139" data-name="Trazado 25139" d="M252.439,245.836v-2.8l13.156-2.641v10.333l-13.156-2.758Z" transform="translate(-252.439 -240.395)" fill="#1d3244"/>
            </g>
          </g>
          <rect id="Rectángulo_2296" data-name="Rectángulo 2296" width="4.14" height="24.999" transform="translate(26.634)" fill="#1d3244"/>
        </g>
        <g id="Grupo_8347" data-name="Grupo 8347" transform="translate(102.109 111.741)">
          <path id="Trazado_25140" data-name="Trazado 25140" d="M252.852,253.213a4.506,4.506,0,0,1-4.507,4.5H178.821a4.5,4.5,0,0,1-4.5-4.5V237.325a4.5,4.5,0,0,1,4.5-4.5h69.524a4.506,4.506,0,0,1,4.507,4.5Z" transform="translate(-174.319 -232.82)" fill="#00455b"/>
          <path id="Trazado_25141" data-name="Trazado 25141" d="M252.257,253.213a4.506,4.506,0,0,1-4.507,4.5H178.226l69.524-24.9a4.506,4.506,0,0,1,4.507,4.5Z" transform="translate(-173.724 -232.82)" fill="#003042"/>
        </g>
        <g id="Grupo_8351" data-name="Grupo 8351" transform="translate(30.534 111.671)">
          <g id="Grupo_8349" data-name="Grupo 8349" transform="translate(16.374 1.991)">
            <rect id="Rectángulo_2298" data-name="Rectángulo 2298" width="22.47" height="24.058" fill="#283c4d"/>
            <path id="Trazado_25143" data-name="Trazado 25143" d="M148.886,258.544h-22.47l22.47-24.058Z" transform="translate(-126.417 -234.486)" fill="#1d3244"/>
          </g>
          <g id="Grupo_8350" data-name="Grupo 8350">
            <rect id="Rectángulo_2299" data-name="Rectángulo 2299" width="16.438" height="28.038" fill="#283c4d"/>
            <path id="Trazado_25144" data-name="Trazado 25144" d="M128.646,260.8H112.208l16.438-28.038Z" transform="translate(-112.208 -232.759)" fill="#1d3244"/>
          </g>
        </g>
        <path id="Trazado_25145" data-name="Trazado 25145" d="M241.436,237.054,278.1,219.4l-52.755-45.351H215.028l-67.28,35.066,7.026,9.742Z" transform="translate(-76.258 -130.033)" fill="#00455b"/>
        <path id="Trazado_25146" data-name="Trazado 25146" d="M234.165,237.054,270.826,219.4l-42.771-45.351H217.737l-67.28,35.066,7.027,9.742Z" transform="translate(-75.846 -130.033)" fill="#00455b"/>
        <g id="Grupo_8368" data-name="Grupo 8368" transform="translate(54.679 0)">
          <g id="Grupo_8352" data-name="Grupo 8352">
            <path id="Trazado_25147" data-name="Trazado 25147" d="M221.385,187.105a44.379,44.379,0,1,1-36.958-50.711A44.379,44.379,0,0,1,221.385,187.105Z" transform="translate(-133.16 -135.853)" fill="#417585"/>
            <path id="Trazado_25148" data-name="Trazado 25148" d="M221.311,168.3a44.387,44.387,0,0,1-87.67,13.957Z" transform="translate(-133.086 -130.909)" fill="#00455b"/>
          </g>
          <g id="Grupo_8353" data-name="Grupo 8353" transform="translate(2.701 2.701)">
            <path id="Trazado_25149" data-name="Trazado 25149" d="M218.362,186.329a41.679,41.679,0,1,1-34.71-47.624A41.68,41.68,0,0,1,218.362,186.329Z" transform="translate(-135.504 -138.196)" fill="#f5bd79"/>
            <path id="Trazado_25150" data-name="Trazado 25150" d="M218.293,168.667a41.685,41.685,0,0,1-82.333,13.108Z" transform="translate(-135.435 -133.554)" fill="#f0a228"/>
          </g>
          <g id="Grupo_8355" data-name="Grupo 8355" transform="translate(26.472 26.46)">
            <g id="Grupo_8354" data-name="Grupo 8354">
              <path id="Trazado_25151" data-name="Trazado 25151" d="M191.756,179.4a17.911,17.911,0,1,1-15.02-20.385A17.912,17.912,0,0,1,191.756,179.4Z" transform="translate(-156.132 -158.815)" fill="#00455b"/>
              <path id="Trazado_25152" data-name="Trazado 25152" d="M191.7,171.832a17.917,17.917,0,0,1-35.36,5.813Z" transform="translate(-156.1 -156.831)" fill="#08253f"/>
            </g>
          </g>
          <g id="Grupo_8357" data-name="Grupo 8357" transform="translate(41.044 41.029)">
            <g id="Grupo_8356" data-name="Grupo 8356">
              <path id="Trazado_25153" data-name="Trazado 25153" d="M175.433,175.3a3.347,3.347,0,1,1-2.8-3.809A3.347,3.347,0,0,1,175.433,175.3Z" transform="translate(-168.777 -171.457)" fill="#212635"/>
            </g>
          </g>
          <g id="Grupo_8362" data-name="Grupo 8362" transform="translate(39.276 28.503)">
            <g id="Grupo_8359" data-name="Grupo 8359">
              <g id="Grupo_8358" data-name="Grupo 8358">
                <path id="Trazado_25154" data-name="Trazado 25154" d="M177.411,166.464a5.112,5.112,0,1,1-4.288-5.818A5.117,5.117,0,0,1,177.411,166.464Z" transform="translate(-167.243 -160.587)" fill="#478787"/>
                <path id="Trazado_25155" data-name="Trazado 25155" d="M177.395,164.3a5.116,5.116,0,0,1-10.1,1.659Z" transform="translate(-167.235 -160.021)" fill="#2d6f76"/>
              </g>
            </g>
            <g id="Grupo_8361" data-name="Grupo 8361" transform="translate(0 21.519)">
              <g id="Grupo_8360" data-name="Grupo 8360">
                <path id="Trazado_25156" data-name="Trazado 25156" d="M177.411,185.138a5.112,5.112,0,1,1-4.288-5.818A5.116,5.116,0,0,1,177.411,185.138Z" transform="translate(-167.243 -179.261)" fill="#478787"/>
                <path id="Trazado_25157" data-name="Trazado 25157" d="M177.395,182.976a5.116,5.116,0,0,1-10.1,1.659Z" transform="translate(-167.235 -178.695)" fill="#2d6f76"/>
              </g>
            </g>
          </g>
          <g id="Grupo_8367" data-name="Grupo 8367" transform="translate(28.516 39.261)">
            <g id="Grupo_8364" data-name="Grupo 8364" transform="translate(21.52)">
              <g id="Grupo_8363" data-name="Grupo 8363">
                <path id="Trazado_25158" data-name="Trazado 25158" d="M180.928,180.09a5.113,5.113,0,1,1,5.818-4.287A5.116,5.116,0,0,1,180.928,180.09Z" transform="translate(-176.581 -169.923)" fill="#478787"/>
                <path id="Trazado_25159" data-name="Trazado 25159" d="M182.525,180.074a5.114,5.114,0,0,1-1.658-10.092Z" transform="translate(-176.58 -169.914)" fill="#2d6f76"/>
              </g>
            </g>
            <g id="Grupo_8366" data-name="Grupo 8366">
              <g id="Grupo_8365" data-name="Grupo 8365">
                <path id="Trazado_25160" data-name="Trazado 25160" d="M162.26,180.09a5.112,5.112,0,1,1,5.815-4.287A5.117,5.117,0,0,1,162.26,180.09Z" transform="translate(-157.906 -169.923)" fill="#478787"/>
                <path id="Trazado_25161" data-name="Trazado 25161" d="M163.851,180.074a5.114,5.114,0,0,1-1.658-10.092Z" transform="translate(-157.906 -169.914)" fill="#2d6f76"/>
              </g>
            </g>
          </g>
        </g>
        <g id="Grupo_8385" data-name="Grupo 8385" transform="translate(143.035 2.974)">
          <g id="Grupo_8369" data-name="Grupo 8369">
            <path id="Trazado_25162" data-name="Trazado 25162" d="M298.057,189.686A44.377,44.377,0,1,1,261.1,138.976,44.375,44.375,0,0,1,298.057,189.686Z" transform="translate(-209.834 -138.434)" fill="#417585"/>
            <path id="Trazado_25163" data-name="Trazado 25163" d="M297.984,170.881a44.387,44.387,0,0,1-87.669,13.956Z" transform="translate(-209.761 -133.49)" fill="#00455b"/>
          </g>
          <g id="Grupo_8370" data-name="Grupo 8370" transform="translate(2.699 2.701)">
            <path id="Trazado_25164" data-name="Trazado 25164" d="M295.033,188.911a41.678,41.678,0,1,1-34.71-47.625A41.674,41.674,0,0,1,295.033,188.911Z" transform="translate(-212.176 -140.777)" fill="#f5bd79"/>
            <path id="Trazado_25165" data-name="Trazado 25165" d="M294.964,171.249a41.685,41.685,0,0,1-82.333,13.108Z" transform="translate(-212.107 -136.135)" fill="#f0a228"/>
          </g>
          <g id="Grupo_8372" data-name="Grupo 8372" transform="translate(26.473 26.461)">
            <g id="Grupo_8371" data-name="Grupo 8371">
              <path id="Trazado_25166" data-name="Trazado 25166" d="M268.432,181.987A17.912,17.912,0,1,1,253.409,161.6,17.917,17.917,0,0,1,268.432,181.987Z" transform="translate(-232.807 -161.397)" fill="#00455b"/>
              <path id="Trazado_25167" data-name="Trazado 25167" d="M268.369,174.413a17.917,17.917,0,0,1-35.359,5.815Z" transform="translate(-232.776 -159.413)" fill="#08253f"/>
            </g>
          </g>
          <g id="Grupo_8374" data-name="Grupo 8374" transform="translate(41.041 41.031)">
            <g id="Grupo_8373" data-name="Grupo 8373">
              <path id="Trazado_25168" data-name="Trazado 25168" d="M252.1,177.885a3.347,3.347,0,1,1-2.807-3.807A3.352,3.352,0,0,1,252.1,177.885Z" transform="translate(-245.448 -174.04)" fill="#212635"/>
            </g>
          </g>
          <g id="Grupo_8379" data-name="Grupo 8379" transform="translate(39.274 28.503)">
            <g id="Grupo_8376" data-name="Grupo 8376">
              <g id="Grupo_8375" data-name="Grupo 8375">
                <path id="Trazado_25169" data-name="Trazado 25169" d="M254.086,169.047a5.114,5.114,0,1,1-4.289-5.821A5.116,5.116,0,0,1,254.086,169.047Z" transform="translate(-243.916 -163.168)" fill="#478787"/>
                <path id="Trazado_25170" data-name="Trazado 25170" d="M254.064,166.885a5.113,5.113,0,0,1-10.091,1.657Z" transform="translate(-243.907 -162.602)" fill="#2d6f76"/>
              </g>
            </g>
            <g id="Grupo_8378" data-name="Grupo 8378" transform="translate(0 21.519)">
              <g id="Grupo_8377" data-name="Grupo 8377">
                <path id="Trazado_25171" data-name="Trazado 25171" d="M254.086,187.72A5.114,5.114,0,1,1,249.8,181.9,5.113,5.113,0,0,1,254.086,187.72Z" transform="translate(-243.916 -181.842)" fill="#478787"/>
                <path id="Trazado_25172" data-name="Trazado 25172" d="M254.064,185.559a5.113,5.113,0,0,1-10.091,1.657Z" transform="translate(-243.907 -181.276)" fill="#2d6f76"/>
              </g>
            </g>
          </g>
          <g id="Grupo_8384" data-name="Grupo 8384" transform="translate(28.517 39.263)">
            <g id="Grupo_8381" data-name="Grupo 8381" transform="translate(21.518)">
              <g id="Grupo_8380" data-name="Grupo 8380">
                <path id="Trazado_25173" data-name="Trazado 25173" d="M257.6,182.673a5.112,5.112,0,1,1,5.821-4.287A5.111,5.111,0,0,1,257.6,182.673Z" transform="translate(-253.254 -172.505)" fill="#478787"/>
                <path id="Trazado_25174" data-name="Trazado 25174" d="M259.2,182.655a5.113,5.113,0,0,1-1.657-10.09Z" transform="translate(-253.253 -172.496)" fill="#2d6f76"/>
              </g>
            </g>
            <g id="Grupo_8383" data-name="Grupo 8383">
              <g id="Grupo_8382" data-name="Grupo 8382">
                <path id="Trazado_25175" data-name="Trazado 25175" d="M238.928,182.673a5.112,5.112,0,1,1,5.819-4.287A5.113,5.113,0,0,1,238.928,182.673Z" transform="translate(-234.581 -172.505)" fill="#478787"/>
                <path id="Trazado_25176" data-name="Trazado 25176" d="M240.525,182.655a5.113,5.113,0,0,1-1.658-10.09Z" transform="translate(-234.58 -172.496)" fill="#2d6f76"/>
              </g>
            </g>
          </g>
        </g>
        <path id="Rectángulo_2300" data-name="Rectángulo 2300" d="M8.017,0H102.04a8.019,8.019,0,0,1,8.019,8.019V64.7a8.017,8.017,0,0,1-8.017,8.017H8.016A8.016,8.016,0,0,1,0,64.7V8.017A8.017,8.017,0,0,1,8.017,0Z" transform="translate(55.12 88.759)" fill="#8d7eb3"/>
        <path id="Trazado_25177" data-name="Trazado 25177" d="M243.6,276.35a9.238,9.238,0,0,1-9.237,9.238h-91.58a9.241,9.241,0,0,1-9.241-9.238l100.821-63.473a9.238,9.238,0,0,1,9.237,9.238Z" transform="translate(-78.423 -124.117)" fill="#7968a6"/>
        <g id="Grupo_8387" data-name="Grupo 8387" transform="translate(0 97.378)">
          <path id="Trazado_25178" data-name="Trazado 25178" d="M85.71,220.356v56.622l30.873-14.187V234.818Z" transform="translate(-85.71 -220.356)" fill="#00455b"/>
          <g id="Grupo_8386" data-name="Grupo 8386" transform="translate(0 15.993)">
            <path id="Trazado_25179" data-name="Trazado 25179" d="M116.583,250.006v-8.117L85.71,234.235V264.17l30.873-7.988Z" transform="translate(-85.71 -234.235)" fill="#1d3244"/>
          </g>
        </g>
        <path id="Trazado_25180" data-name="Trazado 25180" d="M204.412,278.443h-52.4a11.285,11.285,0,0,1-11.276-11.273V229.159a11.286,11.286,0,0,1,11.276-11.275h52.4a11.289,11.289,0,0,1,11.277,11.275v38.011A11.288,11.288,0,0,1,204.412,278.443Zm-52.4-56.485a7.21,7.21,0,0,0-7.2,7.2v38.011a7.209,7.209,0,0,0,7.2,7.2h52.4a7.207,7.207,0,0,0,7.2-7.2V229.159a7.207,7.207,0,0,0-7.2-7.2Z" transform="translate(-77.327 -123.354)" fill="#ccc"/>
        <g id="Grupo_8389" data-name="Grupo 8389" transform="translate(71.075 102.706)">
          <g id="Grupo_8388" data-name="Grupo 8388">
            <path id="Trazado_25181" data-name="Trazado 25181" d="M157.348,228.456a5.114,5.114,0,1,1-6.479-3.206A5.117,5.117,0,0,1,157.348,228.456Z" transform="translate(-147.388 -224.979)" fill="#ccc"/>
            <path id="Trazado_25182" data-name="Trazado 25182" d="M156.475,226.769a5.115,5.115,0,0,1-8.212,6.1Z" transform="translate(-147.255 -224.707)" fill="#b0b0b0"/>
          </g>
        </g>
        <g id="Grupo_8391" data-name="Grupo 8391" transform="translate(90.289 121.512)">
          <g id="Grupo_8390" data-name="Grupo 8390">
            <path id="Trazado_25183" data-name="Trazado 25183" d="M170.58,243.575a3.346,3.346,0,1,1-4.24-2.1A3.346,3.346,0,0,1,170.58,243.575Z" transform="translate(-164.062 -241.299)" fill="#ccc"/>
            <path id="Trazado_25184" data-name="Trazado 25184" d="M170.009,242.471a3.348,3.348,0,0,1-5.373,4Z" transform="translate(-163.975 -241.121)" fill="#b0b0b0"/>
          </g>
        </g>
        <g id="Grupo_8393" data-name="Grupo 8393" transform="translate(90.289 139.436)">
          <g id="Grupo_8392" data-name="Grupo 8392">
            <path id="Trazado_25185" data-name="Trazado 25185" d="M170.58,259.129a3.346,3.346,0,1,1-4.24-2.1A3.345,3.345,0,0,1,170.58,259.129Z" transform="translate(-164.062 -256.853)" fill="#00455b"/>
            <path id="Trazado_25186" data-name="Trazado 25186" d="M170.009,258.025a3.348,3.348,0,0,1-5.373,4Z" transform="translate(-163.975 -256.674)" fill="#1d3244"/>
          </g>
        </g>
        <g id="Grupo_8395" data-name="Grupo 8395" transform="translate(81.327 139.436)">
          <g id="Grupo_8394" data-name="Grupo 8394">
            <path id="Trazado_25187" data-name="Trazado 25187" d="M162.8,259.129a3.347,3.347,0,1,1-4.237-2.1A3.342,3.342,0,0,1,162.8,259.129Z" transform="translate(-156.285 -256.853)" fill="#00455b"/>
            <path id="Trazado_25188" data-name="Trazado 25188" d="M162.233,258.025a3.348,3.348,0,1,1-5.375,4Z" transform="translate(-156.197 -256.674)" fill="#1d3244"/>
          </g>
        </g>
        <g id="Grupo_8396" data-name="Grupo 8396" transform="translate(88.493 161.063)">
          <rect id="Rectángulo_2301" data-name="Rectángulo 2301" width="45.016" height="12.016" fill="#736357"/>
          <path id="Trazado_25189" data-name="Trazado 25189" d="M207.519,287.638H162.5l45.016-12.017Z" transform="translate(-162.503 -275.621)" fill="#665447"/>
        </g>
      </g>
      <g id="Grupo_8423" data-name="Grupo 8423" transform="translate(1419.209 232.059)">
        <g id="Grupo_8419" data-name="Grupo 8419" transform="translate(17.629 17.627)">
          <g id="Grupo_8418" data-name="Grupo 8418">
            <path id="Trazado_25216" data-name="Trazado 25216" d="M454.644,232.169a21.71,21.71,0,1,0-.708-30.685A21.716,21.716,0,0,0,454.644,232.169Z" transform="translate(-447.931 -194.765)" fill="#00455b"/>
            <path id="Trazado_25217" data-name="Trazado 25217" d="M451.121,229.379a21.718,21.718,0,0,0,38.217-20.644Z" transform="translate(-448.523 -197.356)" fill="#08253f"/>
          </g>
        </g>
        <g id="Grupo_8422" data-name="Grupo 8422" transform="translate(0 0)">
          <g id="Grupo_8420" data-name="Grupo 8420">
            <path id="Trazado_25218" data-name="Trazado 25218" d="M441.568,181.345a39.335,39.335,0,1,0,55.177,7.058A39.333,39.333,0,0,0,441.568,181.345Zm23.554,5.111a10.333,10.333,0,1,1,5.641,13.478A10.337,10.337,0,0,1,465.121,186.456Zm1.012,52.016a10.332,10.332,0,1,1-5.64-13.482A10.329,10.329,0,0,1,466.134,238.472ZM452.21,214.28a10.333,10.333,0,1,1-11.625-8.854A10.332,10.332,0,0,1,452.21,214.28Zm34.341,25.243a10.332,10.332,0,1,1,1.851-14.495A10.334,10.334,0,0,1,486.55,239.523Zm-22.8-25.609a2.374,2.374,0,1,1,3.33.429A2.372,2.372,0,0,1,463.749,213.914Zm-6.4-12.162a10.333,10.333,0,1,1,1.856-14.494A10.332,10.332,0,0,1,457.344,201.752ZM490.668,219.5a10.333,10.333,0,1,1,8.855-11.626A10.329,10.329,0,0,1,490.668,219.5Z" transform="translate(-426.289 -173.126)" fill="#f1a939"/>
          </g>
          <g id="Grupo_8421" data-name="Grupo 8421" transform="translate(15.402 0.006)">
            <path id="Trazado_25219" data-name="Trazado 25219" d="M500.254,188.407A39.332,39.332,0,0,0,445.2,181.26l3.143,4.061a10.327,10.327,0,0,1,12.631,16.338l6.842,8.85a2.363,2.363,0,0,1,2.885,3.733l6.845,8.849a10.326,10.326,0,0,1,12.63,16.336l3.141,4.064A39.33,39.33,0,0,0,500.254,188.407Zm-31.619-1.946a10.331,10.331,0,1,1,5.64,13.479A10.329,10.329,0,0,1,468.634,186.461ZM494.179,219.5a10.333,10.333,0,1,1,8.853-11.625A10.33,10.33,0,0,1,494.179,219.5Z" transform="translate(-445.197 -173.133)" fill="#f5bd79"/>
          </g>
        </g>
      </g>
      <g id="Grupo_8430" data-name="Grupo 8430" transform="translate(1329.056 242.585)">
        <g id="Grupo_8428" data-name="Grupo 8428" transform="translate(0 0)">
          <g id="Grupo_8424" data-name="Grupo 8424" transform="translate(0 0)">
            <rect id="Rectángulo_2312" data-name="Rectángulo 2312" width="67.72" height="9.626" transform="translate(0 17.917) rotate(-15.342)" fill="#08253f"/>
            <path id="Trazado_25220" data-name="Trazado 25220" d="M447.614,344.92l-8.172,2.242-6.978-8.086,8.172-2.241Z" transform="translate(-381.138 -335.251)" fill="#f2f2f2"/>
            <path id="Trazado_25221" data-name="Trazado 25221" d="M424.137,351.362l-8.172,2.24-6.978-8.084,8.171-2.242Z" transform="translate(-373.827 -337.257)" fill="#f2f2f2"/>
            <path id="Trazado_25222" data-name="Trazado 25222" d="M400.656,357.8l-8.171,2.244-6.98-8.087,8.174-2.241Z" transform="translate(-366.514 -339.263)" fill="#f2f2f2"/>
            <path id="Trazado_25223" data-name="Trazado 25223" d="M377.18,364.246l-8.171,2.242-6.98-8.087,8.173-2.242Z" transform="translate(-359.202 -341.269)" fill="#f2f2f2"/>
          </g>
          <g id="Grupo_8425" data-name="Grupo 8425" transform="translate(2.501 27.588)">
            <rect id="Rectángulo_2313" data-name="Rectángulo 2313" width="67.719" height="46.556" transform="translate(0 0.009)" fill="#08253f"/>
            <path id="Trazado_25224" data-name="Trazado 25224" d="M451.918,374.6h-8.473l-4.589,9.644h8.472Z" transform="translate(-385.631 -374.601)" fill="#f2f2f2"/>
            <path id="Trazado_25225" data-name="Trazado 25225" d="M427.572,374.6H419.1l-4.589,9.644h8.472Z" transform="translate(-378.048 -374.601)" fill="#f2f2f2"/>
            <path id="Trazado_25226" data-name="Trazado 25226" d="M403.227,374.6h-8.476l-4.589,9.644h8.475Z" transform="translate(-370.465 -374.601)" fill="#f2f2f2"/>
            <path id="Trazado_25227" data-name="Trazado 25227" d="M378.88,374.6h-8.473l-4.592,9.644h8.474Z" transform="translate(-362.883 -374.601)" fill="#f2f2f2"/>
          </g>
          <g id="Grupo_8427" data-name="Grupo 8427" transform="translate(1.73 23.31)">
            <g id="Grupo_8426" data-name="Grupo 8426">
              <path id="Trazado_25228" data-name="Trazado 25228" d="M364.329,375.119a3.384,3.384,0,1,0-3.855-2.839A3.387,3.387,0,0,0,364.329,375.119Z" transform="translate(-360.436 -368.388)" fill="#00455b"/>
              <path id="Trazado_25229" data-name="Trazado 25229" d="M364.555,375.133a3.386,3.386,0,0,0,1.1-6.682Z" transform="translate(-361.719 -368.408)" fill="#19566b"/>
            </g>
          </g>
        </g>
        <g id="Grupo_8429" data-name="Grupo 8429" transform="translate(5.637 41.74)">
          <rect id="Rectángulo_2314" data-name="Rectángulo 2314" width="61.395" height="0.937" transform="translate(0 0)" fill="#ccc"/>
          <rect id="Rectángulo_2315" data-name="Rectángulo 2315" width="61.395" height="0.934" transform="translate(0 26.803)" fill="#ccc"/>
          <rect id="Rectángulo_2316" data-name="Rectángulo 2316" width="0.408" height="26.803" transform="translate(30.496 0.623)" fill="#ccc"/>
          <rect id="Rectángulo_2317" data-name="Rectángulo 2317" width="0.407" height="9.271" transform="translate(15.248 18.157)" fill="#ccc"/>
          <rect id="Rectángulo_2318" data-name="Rectángulo 2318" width="0.408" height="9.271" transform="translate(45.744 18.157)" fill="#ccc"/>
          <rect id="Rectángulo_2319" data-name="Rectángulo 2319" width="0.409" height="26.803" transform="translate(0 0.623)" fill="#ccc"/>
          <rect id="Rectángulo_2320" data-name="Rectángulo 2320" width="0.41" height="26.805" transform="translate(60.99 0.666)" fill="#ccc"/>
          <rect id="Rectángulo_2321" data-name="Rectángulo 2321" width="61.01" height="0.41" transform="translate(0.155 5.172)" fill="#ccc"/>
          <rect id="Rectángulo_2322" data-name="Rectángulo 2322" width="61.085" height="0.409" transform="translate(0.155 18.107)" fill="#ccc"/>
        </g>
      </g>
      <path id="Trazado_25230" data-name="Trazado 25230" d="M-1445.714-1158.3l-160.476-133.709v306.586l160.476-116.765Z" transform="translate(2672.208 1317.979)" fill="#f8f8f8"/>
    </g>
    <g id="Grupo_8435" data-name="Grupo 8435" transform="translate(-1450.494 -1329.375)">
      <path id="Trazado_25236" data-name="Trazado 25236" d="M38.47,0A38.47,38.47,0,1,1,0,38.47,38.47,38.47,0,0,1,38.47,0Z" transform="translate(2570.625 1497.089)" fill="#98e6dc"/>
      <rect id="Rectángulo_2323" data-name="Rectángulo 2323" width="17.267" height="23.465" transform="translate(2576.698 1490.175)" fill="#f0a228"/>
      <rect id="Rectángulo_2324" data-name="Rectángulo 2324" width="8.412" height="30.328" transform="translate(2600.385 1486.633)" fill="#f0a228"/>
      <rect id="Rectángulo_2325" data-name="Rectángulo 2325" width="8.412" height="29.664" transform="translate(2562.088 1487.075)" fill="#f0a228"/>
      <rect id="Rectángulo_2326" data-name="Rectángulo 2326" width="3.345" height="28.385" transform="translate(2639.067 1477.08) rotate(-45)" fill="#4c4c4c"/>
      <path id="Trazado_25231" data-name="Trazado 25231" d="M2923.708,1880.364a1.666,1.666,0,0,1-1.183-.49l-3.835-3.835-3.835,3.835a1.673,1.673,0,0,1-2.365-2.365l5.018-5.018a1.673,1.673,0,0,1,2.366,0l3.835,3.835,3.835-3.835a1.673,1.673,0,0,1,2.366,2.365l-5.018,5.018A1.667,1.667,0,0,1,2923.708,1880.364Z" transform="translate(-278.406 -316.371)" fill="#191919"/>
      <rect id="Rectángulo_2327" data-name="Rectángulo 2327" width="16" height="4" transform="translate(2634.494 1548.375)" fill="#191919"/>
      <rect id="Rectángulo_2328" data-name="Rectángulo 2328" width="16" height="3" transform="translate(2634.494 1542.375)" fill="#191919"/>
      <rect id="Rectángulo_2329" data-name="Rectángulo 2329" width="37" height="4" transform="translate(2613.494 1506.375)" fill="#191919"/>
      <rect id="Rectángulo_2330" data-name="Rectángulo 2330" width="37" height="4" transform="translate(2613.494 1515.375)" fill="#191919"/>
      <rect id="Rectángulo_2331" data-name="Rectángulo 2331" width="39" height="3" transform="translate(2598.494 1524.375)" fill="#191919"/>
      <path id="Trazado_25232" data-name="Trazado 25232" d="M2771.267,1575.7H2714.4v-3.345h53.523v-71.922a5.024,5.024,0,0,0-5.018-5.018h-15.053v-15.053a5.024,5.024,0,0,0-5.018-5.018h-43.488v10.036H2696V1472h46.833a8.373,8.373,0,0,1,8.363,8.363v11.708H2762.9a8.373,8.373,0,0,1,8.363,8.363Z" transform="translate(-107.566)" fill="#191919"/>
      <g id="Grupo_8434" data-name="Grupo 8434" transform="translate(2560 1485.381)">
        <g id="Grupo_8433" data-name="Grupo 8433">
          <path id="Trazado_25233" data-name="Trazado 25233" d="M2755.708,1569.452H2744V1536h11.708Zm-8.363-3.345h5.018v-26.761h-5.018Z" transform="translate(-2705.531 -1536)" fill="#191919"/>
          <path id="Trazado_25234" data-name="Trazado 25234" d="M2571.707,1569.452H2560V1536h11.737Zm-8.362-3.345h5.02l.024-26.761h-5.043Z" transform="translate(-2560 -1536)" fill="#191919"/>
          <rect id="Rectángulo_2332" data-name="Rectángulo 2332" width="3.345" height="23.416" transform="translate(15.167 5.018)" fill="#191919"/>
          <rect id="Rectángulo_2333" data-name="Rectángulo 2333" width="2" height="24" transform="translate(32.494 4.994)" fill="#191919"/>
          <path id="Trazado_25235" data-name="Trazado 25235" d="M2657.854,1737.231a5.86,5.86,0,0,1-5.854-5.854V1672h3.345v59.377a2.509,2.509,0,0,0,5.018,0V1672h3.345v59.377A5.861,5.861,0,0,1,2657.854,1737.231Z" transform="translate(-2632.765 -1643.566)" fill="#191919"/>
          <rect id="Rectángulo_2334" data-name="Rectángulo 2334" width="19" height="3" transform="translate(10.494 26.994)" fill="#191919"/>
          <rect id="Rectángulo_2335" data-name="Rectángulo 2335" width="11" height="3" transform="translate(29.494 26.994)" fill="#191919"/>
          <rect id="Rectángulo_2336" data-name="Rectángulo 2336" width="30" height="3" transform="translate(10.494 2.994)" fill="#191919"/>
          <g id="Grupo_8432" data-name="Grupo 8432" transform="translate(4.712 30.107)">
            <rect id="Rectángulo_2337" data-name="Rectángulo 2337" width="6.69" height="3.345" fill="#191919"/>
          </g>
        </g>
        <circle id="Elipse_497" data-name="Elipse 497" cx="1.5" cy="1.5" r="1.5" transform="translate(40.494 86.994)" fill="#191919"/>
        <circle id="Elipse_498" data-name="Elipse 498" cx="1.5" cy="1.5" r="1.5" transform="translate(33.494 86.994)" fill="#191919"/>
      </g>
    </g>
  </g>
</svg>
